<svg xmlns="http://www.w3.org/2000/svg" xmlns:xlink="http://www.w3.org/1999/xlink" width="1920" zoomAndPan="magnify" viewBox="0 0 1440 809.999993" height="1080" preserveAspectRatio="xMidYMid meet" version="1.0"><defs><g/></defs><rect x="-144" width="1728" fill="#ffffff" y="-80.999999" height="971.999992" fill-opacity="1"/><rect x="-144" width="1728" fill="#fbf8f2" y="-80.999999" height="971.999992" fill-opacity="1"/><g fill="#3b3a3a" fill-opacity="1"><g transform="translate(417.575347, 442.357263)"><g><path d="M 9.71875 0 L 9.71875 -101.484375 L 28.5625 -101.484375 L 73.9375 -32.90625 L 73.9375 -101.484375 L 92.9375 -101.484375 L 92.9375 0 L 74.953125 0 L 28.5625 -70.890625 L 28.5625 0 Z M 9.71875 0 "/></g></g></g><g fill="#3b3a3a" fill-opacity="1"><g transform="translate(520.071031, 442.357263)"><g><path d="M 38.859375 1.59375 C 32.378906 1.59375 26.550781 0.0976562 21.375 -2.890625 C 16.207031 -5.890625 12.148438 -10.144531 9.203125 -15.65625 C 6.253906 -21.164062 4.78125 -27.59375 4.78125 -34.9375 C 4.78125 -42.382812 6.253906 -48.835938 9.203125 -54.296875 C 12.148438 -59.753906 16.207031 -64.003906 21.375 -67.046875 C 26.550781 -70.097656 32.378906 -71.625 38.859375 -71.625 C 45.429688 -71.625 51.273438 -70.097656 56.390625 -67.046875 C 61.515625 -64.003906 65.550781 -59.753906 68.5 -54.296875 C 71.445312 -48.835938 72.921875 -42.382812 72.921875 -34.9375 C 72.921875 -27.59375 71.445312 -21.164062 68.5 -15.65625 C 65.550781 -10.144531 61.515625 -5.890625 56.390625 -2.890625 C 51.273438 0.0976562 45.429688 1.59375 38.859375 1.59375 Z M 38.859375 -14.9375 C 43.492188 -14.9375 47.285156 -16.648438 50.234375 -20.078125 C 53.179688 -23.515625 54.65625 -28.46875 54.65625 -34.9375 C 54.65625 -41.507812 53.179688 -46.507812 50.234375 -49.9375 C 47.285156 -53.375 43.492188 -55.09375 38.859375 -55.09375 C 34.210938 -55.09375 30.460938 -53.375 27.609375 -49.9375 C 24.765625 -46.507812 23.34375 -41.507812 23.34375 -34.9375 C 23.34375 -28.46875 24.765625 -23.515625 27.609375 -20.078125 C 30.460938 -16.648438 34.210938 -14.9375 38.859375 -14.9375 Z M 38.859375 -14.9375 "/></g></g></g><g fill="#3b3a3a" fill-opacity="1"><g transform="translate(597.921362, 442.357263)"><g/></g></g><g fill="#3b3a3a" fill-opacity="1"><g transform="translate(638.513713, 442.357263)"><g><path d="M 9.71875 0 L 9.71875 -101.484375 L 28.5625 -101.484375 L 28.5625 0 Z M 9.71875 0 "/></g></g></g><g fill="#3b3a3a" fill-opacity="1"><g transform="translate(676.786485, 442.357263)"><g><path d="M 8.40625 0 L 8.40625 -69.875 L 24.640625 -69.875 L 25.8125 -62.046875 C 27.164062 -64.859375 29.363281 -67.15625 32.40625 -68.9375 C 35.445312 -70.726562 39 -71.625 43.0625 -71.625 C 47.40625 -71.625 51.242188 -70.582031 54.578125 -68.5 C 57.921875 -66.425781 60.554688 -63.550781 62.484375 -59.875 C 64.421875 -63.257812 67.128906 -66.0625 70.609375 -68.28125 C 74.085938 -70.507812 77.953125 -71.625 82.203125 -71.625 C 88.972656 -71.625 94.484375 -69.179688 98.734375 -64.296875 C 102.984375 -59.421875 105.109375 -52.679688 105.109375 -44.078125 L 105.109375 0 L 86.703125 0 L 86.703125 -39.578125 C 86.703125 -44.117188 85.878906 -47.835938 84.234375 -50.734375 C 82.585938 -53.640625 80.316406 -55.09375 77.421875 -55.09375 C 73.742188 -55.09375 70.890625 -53.710938 68.859375 -50.953125 C 66.835938 -48.203125 65.828125 -44.070312 65.828125 -38.5625 L 65.828125 0 L 47.5625 0 L 47.5625 -39.578125 C 47.5625 -44.117188 46.6875 -47.835938 44.9375 -50.734375 C 43.195312 -53.640625 40.878906 -55.09375 37.984375 -55.09375 C 30.441406 -55.09375 26.671875 -49.582031 26.671875 -38.5625 L 26.671875 0 Z M 8.40625 0 "/></g></g></g><g fill="#3b3a3a" fill-opacity="1"><g transform="translate(790.300105, 442.357263)"><g><path d="M 32.328125 0.875 C 24.691406 1.257812 18.335938 -0.378906 13.265625 -4.046875 C 8.191406 -7.722656 5.65625 -13.046875 5.65625 -20.015625 C 5.65625 -24.941406 7.128906 -29.164062 10.078125 -32.6875 C 13.023438 -36.21875 16.84375 -38.972656 21.53125 -40.953125 C 26.21875 -42.941406 31.070312 -43.984375 36.09375 -44.078125 C 38.320312 -44.265625 40.453125 -44.09375 42.484375 -43.5625 C 44.515625 -43.03125 46.398438 -42.332031 48.140625 -41.46875 L 48.140625 -46.109375 C 48.140625 -50.160156 47.269531 -52.789062 45.53125 -54 C 43.789062 -55.207031 41.320312 -55.8125 38.125 -55.8125 C 33.96875 -55.8125 29.691406 -55.0625 25.296875 -53.5625 C 20.898438 -52.070312 17.109375 -50.164062 13.921875 -47.84375 L 5.65625 -61.90625 C 9.71875 -64.414062 14.570312 -66.660156 20.21875 -68.640625 C 25.875 -70.628906 31.84375 -71.625 38.125 -71.625 C 47.113281 -71.625 53.925781 -69.785156 58.5625 -66.109375 C 63.207031 -62.441406 65.53125 -55.773438 65.53125 -46.109375 L 65.53125 -15.65625 C 65.53125 -13.625 65.988281 -12.460938 66.90625 -12.171875 C 67.820312 -11.890625 69.878906 -12.226562 73.078125 -13.1875 L 73.078125 -2.03125 C 71.523438 -1.351562 69.585938 -0.695312 67.265625 -0.0625 C 64.953125 0.5625 62.394531 0.875 59.59375 0.875 C 53.882812 0.875 50.257812 -1.054688 48.71875 -4.921875 C 44.269531 -1.546875 38.804688 0.382812 32.328125 0.875 Z M 31.890625 -14.78125 C 37.015625 -15.070312 41.097656 -16.0625 44.140625 -17.75 C 47.191406 -19.445312 48.617188 -21.796875 48.421875 -24.796875 C 48.328125 -27.015625 47.238281 -28.460938 45.15625 -29.140625 C 43.082031 -29.816406 40.546875 -30.054688 37.546875 -29.859375 C 33.097656 -29.671875 29.566406 -28.535156 26.953125 -26.453125 C 24.347656 -24.378906 23.097656 -22.179688 23.203125 -19.859375 C 23.296875 -18.210938 24.039062 -16.929688 25.4375 -16.015625 C 26.84375 -15.097656 28.992188 -14.6875 31.890625 -14.78125 Z M 31.890625 -14.78125 "/></g></g></g><g fill="#3b3a3a" fill-opacity="1"><g transform="translate(867.715491, 442.357263)"><g><path d="M 37.265625 28.265625 C 29.816406 28.265625 23.503906 26.890625 18.328125 24.140625 C 13.160156 21.390625 8.835938 17.0625 5.359375 11.15625 L 20.015625 1.453125 C 21.941406 4.929688 24.257812 7.515625 26.96875 9.203125 C 29.675781 10.898438 33.109375 11.75 37.265625 11.75 C 42.578125 11.75 46.460938 10.148438 48.921875 6.953125 C 51.390625 3.765625 52.625 -1.398438 52.625 -8.546875 L 52.625 -10.15625 C 48.175781 -6.382812 42.863281 -4.5 36.6875 -4.5 C 30.5 -4.5 25.007812 -5.726562 20.21875 -8.1875 C 15.4375 -10.65625 11.664062 -14.398438 8.90625 -19.421875 C 6.15625 -24.453125 4.78125 -30.6875 4.78125 -38.125 C 4.78125 -45.570312 6.15625 -51.785156 8.90625 -56.765625 C 11.664062 -61.742188 15.4375 -65.460938 20.21875 -67.921875 C 25.007812 -70.390625 30.5 -71.625 36.6875 -71.625 C 43.644531 -71.625 49.488281 -69.253906 54.21875 -64.515625 L 54.953125 -69.875 L 70.75 -69.875 L 70.75 -8.546875 C 70.75 2.753906 68.113281 11.710938 62.84375 18.328125 C 57.582031 24.953125 49.054688 28.265625 37.265625 28.265625 Z M 38.125 -20.296875 C 42.769531 -20.296875 46.566406 -21.890625 49.515625 -25.078125 C 52.460938 -28.265625 53.9375 -32.613281 53.9375 -38.125 C 53.9375 -43.632812 52.460938 -47.9375 49.515625 -51.03125 C 46.566406 -54.125 42.769531 -55.671875 38.125 -55.671875 C 33.488281 -55.671875 29.863281 -54.125 27.25 -51.03125 C 24.644531 -47.9375 23.34375 -43.632812 23.34375 -38.125 C 23.34375 -32.613281 24.644531 -28.265625 27.25 -25.078125 C 29.863281 -21.890625 33.488281 -20.296875 38.125 -20.296875 Z M 38.125 -20.296875 "/></g></g></g><g fill="#3b3a3a" fill-opacity="1"><g transform="translate(947.015536, 442.357263)"><g><path d="M 39.296875 1.59375 C 29.046875 1.59375 20.726562 -1.425781 14.34375 -7.46875 C 7.96875 -13.507812 4.78125 -22.664062 4.78125 -34.9375 C 4.78125 -42.570312 6.207031 -49.117188 9.0625 -54.578125 C 11.914062 -60.046875 15.851562 -64.253906 20.875 -67.203125 C 25.90625 -70.148438 31.707031 -71.625 38.28125 -71.625 C 44.851562 -71.625 50.429688 -70.050781 55.015625 -66.90625 C 59.609375 -63.769531 63.113281 -59.445312 65.53125 -53.9375 C 67.945312 -48.425781 69.15625 -42.09375 69.15625 -34.9375 L 69.15625 -31.03125 L 22.765625 -31.03125 C 23.242188 -24.550781 25.003906 -20.125 28.046875 -17.75 C 31.097656 -15.382812 34.941406 -14.203125 39.578125 -14.203125 C 43.828125 -14.203125 47.304688 -15.21875 50.015625 -17.25 C 52.722656 -19.28125 55.140625 -22.328125 57.265625 -26.390625 L 70.609375 -16.96875 C 66.835938 -10.289062 62.363281 -5.523438 57.1875 -2.671875 C 52.019531 0.171875 46.054688 1.59375 39.296875 1.59375 Z M 23.484375 -44.9375 L 51.171875 -44.9375 C 49.429688 -53.25 45.035156 -57.40625 37.984375 -57.40625 C 34.117188 -57.40625 30.976562 -56.4375 28.5625 -54.5 C 26.144531 -52.570312 24.453125 -49.382812 23.484375 -44.9375 Z M 23.484375 -44.9375 "/></g></g></g></svg>