<?xml version="1.0" standalone="no"?>
<!DOCTYPE svg PUBLIC "-//W3C//DTD SVG 20010904//EN"
 "http://www.w3.org/TR/2001/REC-SVG-20010904/DTD/svg10.dtd">
<svg version="1.0" xmlns="http://www.w3.org/2000/svg"
 width="1219.000000pt" height="1219.000000pt" viewBox="0 0 1219.000000 1219.000000"
 preserveAspectRatio="xMidYMid meet">
<metadata>
Created by potrace 1.14, written by Peter Selinger 2001-2017
</metadata>
<g transform="translate(0.000000,1219.000000) scale(0.100000,-0.100000)"
fill="#000000" stroke="none">
<path d="M6027 11666 c-50 -19 -85 -51 -108 -101 -42 -91 -12 -181 86 -255 82
-61 344 -327 430 -434 39 -48 131 -163 205 -254 75 -92 172 -212 217 -267 89
-111 379 -538 469 -691 31 -55 85 -144 119 -199 34 -55 99 -170 145 -255 45
-85 98 -179 116 -207 19 -29 50 -86 70 -125 20 -40 58 -109 84 -153 133 -225
289 -524 352 -675 22 -52 54 -122 73 -155 18 -33 36 -71 40 -85 4 -14 19 -50
35 -80 15 -30 32 -73 39 -95 13 -41 61 -161 112 -275 15 -36 56 -132 89 -215
33 -82 69 -170 80 -195 74 -171 171 -478 279 -885 27 -104 53 -208 56 -230 4
-22 13 -72 21 -112 8 -40 14 -89 14 -111 0 -21 4 -42 9 -47 8 -9 15 -95 41
-485 6 -80 15 -201 20 -270 14 -164 7 -1053 -8 -1140 -6 -37 -16 -109 -22
-160 -12 -107 -70 -429 -102 -565 -31 -132 -133 -422 -170 -480 -17 -27 -67
-111 -110 -185 -89 -152 -136 -218 -218 -305 -31 -33 -70 -77 -86 -97 -82
-102 -391 -322 -566 -401 -42 -19 -92 -46 -110 -60 -18 -14 -62 -39 -98 -55
-91 -42 -291 -128 -315 -135 -11 -3 -63 -22 -115 -41 -52 -20 -104 -36 -116
-36 -11 0 -60 -14 -110 -30 -295 -101 -582 -136 -1109 -134 -181 0 -227 3
-258 17 -42 18 -145 46 -402 107 -330 80 -348 87 -573 223 -113 69 -140 81
-186 85 -134 11 -228 -102 -202 -243 4 -19 20 -51 37 -69 43 -49 303 -202 433
-254 130 -52 847 -235 991 -253 96 -12 394 -2 770 27 197 14 282 31 470 89 61
18 164 48 230 65 280 74 497 167 865 369 333 183 408 237 603 435 204 207 241
255 394 511 126 209 168 298 251 530 78 219 114 383 184 835 l33 215 0 610 c0
648 -11 893 -56 1255 -63 509 -301 1323 -548 1877 -45 100 -81 186 -81 190 0
4 -53 118 -119 253 -65 135 -158 328 -206 430 -154 327 -356 731 -445 890 -48
85 -119 214 -157 285 -65 121 -151 263 -313 515 -200 312 -317 490 -349 531
-59 76 -384 471 -544 662 -158 188 -424 449 -490 480 -52 25 -124 30 -170 13z"/>
<path d="M5533 11251 c-75 -35 -180 -148 -385 -417 -46 -61 -120 -155 -166
-209 -171 -208 -483 -661 -632 -920 -35 -60 -96 -162 -135 -225 -80 -127 -187
-336 -324 -633 -112 -241 -164 -369 -231 -562 -28 -82 -82 -229 -120 -325
-106 -274 -172 -488 -259 -840 -103 -416 -137 -591 -205 -1035 -98 -637 -110
-808 -103 -1409 4 -316 10 -460 26 -621 56 -558 87 -765 151 -1010 52 -200
164 -569 205 -675 45 -116 310 -673 350 -735 44 -67 161 -181 207 -200 99 -40
211 7 253 107 33 81 8 170 -67 231 -50 41 -136 189 -213 365 -23 53 -67 148
-98 211 -112 226 -269 757 -327 1102 -12 68 -26 149 -31 179 -6 30 -19 154
-30 275 -11 121 -25 272 -32 335 -15 144 -14 865 2 1075 16 211 37 391 71 600
15 99 40 254 55 345 30 190 92 491 135 665 16 66 41 171 55 232 30 137 116
401 203 623 35 91 92 246 127 345 90 258 101 283 230 560 131 282 259 533 306
601 17 25 73 116 123 202 114 192 212 348 296 467 145 206 219 305 295 399 84
103 120 151 195 253 37 50 220 269 342 407 44 50 36 130 -20 190 -60 64 -167
84 -249 47z"/>
</g>
</svg>
